# xmcd CD database file
#
# Track frame offsets:
#	150
#	24365
#	43519
#	59823
#	80204
#	93365
#	113537
#	133568
#	147204
#	165553
#	183709
#	213109
#	231185
#	250301
#	265769
#
# Disc length: 3830 seconds
#
# Revision: 26
# Processed by: cddbd v1.5.2PL0 Copyright (c) Steve Scherf et al.
# Submitted via: CDex 1.70beta2
#
DISCID=cf0ef40f
DTITLE=LAMBERT - Chillout meets Lounge 3
DYEAR=2007
DGENRE=Jazz
TTITLE0=Guenter Haas/Without You
TTITLE1=Stuart Roslyn/Slip Stream
TTITLE2=Nigel Mullaney and Jonathan Jowett/Melt it down
TTITLE3=Stargazer/Eastend
TTITLE4=Bill Baylis/Kooky Choo
TTITLE5=Ground 244/Infinity
TTITLE6=Spyritual/Quest for Love
TTITLE7=David Ayers/It's a long way home
TTITLE8=Three to the moon/Moody Blues
TTITLE9=Arllow/Latin Soulshaker
TTITLE10=Simon Le Grec/La Mer
TTITLE11=Beatkonexion/Flowmotion
TTITLE12=Margo Barossa/Who needs forever
TTITLE13=Chubbanak Club/Candy Snow (reloaded)
TTITLE14=Deja Move/Warmin'
EXTD=YEAR: 2007
EXTT0=
EXTT1=
EXTT2=
EXTT3=
EXTT4=
EXTT5=
EXTT6=
EXTT7=
EXTT8=
EXTT9=
EXTT10=
EXTT11=
EXTT12=
EXTT13=
EXTT14=
PLAYORDER=
